<mxfile host="app.diagrams.net" modified="2021-09-17T14:39:51.011Z" agent="5.0 (Windows NT 10.0; Win64; x64) AppleWebKit/537.36 (KHTML, like Gecko) Chrome/93.0.4577.63 Safari/537.36" etag="OkNz2_KDuiXxkW3HXVMJ" version="14.9.0" type="github">
  <diagram id="FA7UBe5_Pa2u_HeW7HIF" name="Page-1">
    <mxGraphModel dx="2282" dy="764" grid="1" gridSize="10" guides="1" tooltips="1" connect="1" arrows="1" fold="1" page="1" pageScale="1" pageWidth="1100" pageHeight="850" math="0" shadow="0">
      <root>
        <mxCell id="0" />
        <mxCell id="1" parent="0" />
        <mxCell id="7Hc2PI4Ob-_sRr31-LG4-1" value="student" style="rounded=0;whiteSpace=wrap;html=1;" parent="1" vertex="1">
          <mxGeometry x="340" y="230" width="130" height="30" as="geometry" />
        </mxCell>
        <mxCell id="7Hc2PI4Ob-_sRr31-LG4-2" value="current address" style="ellipse;whiteSpace=wrap;html=1;" parent="1" vertex="1">
          <mxGeometry x="345" y="110" width="105" height="40" as="geometry" />
        </mxCell>
        <mxCell id="7Hc2PI4Ob-_sRr31-LG4-4" value="current phone no." style="ellipse;whiteSpace=wrap;html=1;" parent="1" vertex="1">
          <mxGeometry x="520" y="110" width="105" height="40" as="geometry" />
        </mxCell>
        <mxCell id="7Hc2PI4Ob-_sRr31-LG4-5" value="Permanent Address" style="ellipse;whiteSpace=wrap;html=1;" parent="1" vertex="1">
          <mxGeometry x="630" y="110" width="105" height="40" as="geometry" />
        </mxCell>
        <mxCell id="7Hc2PI4Ob-_sRr31-LG4-6" value="Permanent phone no." style="ellipse;whiteSpace=wrap;html=1;" parent="1" vertex="1">
          <mxGeometry x="735" y="110" width="105" height="40" as="geometry" />
        </mxCell>
        <mxCell id="7Hc2PI4Ob-_sRr31-LG4-10" value="D.O.B" style="ellipse;whiteSpace=wrap;html=1;" parent="1" vertex="1">
          <mxGeometry x="-50" y="190" width="105" height="40" as="geometry" />
        </mxCell>
        <mxCell id="7Hc2PI4Ob-_sRr31-LG4-11" value="Sex" style="ellipse;whiteSpace=wrap;html=1;" parent="1" vertex="1">
          <mxGeometry x="-50" y="240" width="105" height="40" as="geometry" />
        </mxCell>
        <mxCell id="7Hc2PI4Ob-_sRr31-LG4-12" value="Class" style="ellipse;whiteSpace=wrap;html=1;" parent="1" vertex="1">
          <mxGeometry x="-50" y="290" width="105" height="40" as="geometry" />
        </mxCell>
        <mxCell id="7Hc2PI4Ob-_sRr31-LG4-13" value="First Name" style="ellipse;whiteSpace=wrap;html=1;" parent="1" vertex="1">
          <mxGeometry x="-210" y="40" width="80" height="30" as="geometry" />
        </mxCell>
        <mxCell id="7Hc2PI4Ob-_sRr31-LG4-14" value="Student Name" style="ellipse;whiteSpace=wrap;html=1;" parent="1" vertex="1">
          <mxGeometry x="-132.5" y="110" width="105" height="40" as="geometry" />
        </mxCell>
        <mxCell id="7Hc2PI4Ob-_sRr31-LG4-16" value="" style="endArrow=none;html=1;exitX=0.454;exitY=0;exitDx=0;exitDy=0;exitPerimeter=0;" parent="1" source="7Hc2PI4Ob-_sRr31-LG4-1" edge="1">
          <mxGeometry width="50" height="50" relative="1" as="geometry">
            <mxPoint x="370" y="200" as="sourcePoint" />
            <mxPoint x="398" y="150" as="targetPoint" />
          </mxGeometry>
        </mxCell>
        <mxCell id="7Hc2PI4Ob-_sRr31-LG4-17" value="Zip" style="ellipse;whiteSpace=wrap;html=1;" parent="1" vertex="1">
          <mxGeometry x="470" y="20" width="105" height="40" as="geometry" />
        </mxCell>
        <mxCell id="7Hc2PI4Ob-_sRr31-LG4-18" value="city" style="ellipse;whiteSpace=wrap;html=1;" parent="1" vertex="1">
          <mxGeometry x="245" y="20" width="105" height="40" as="geometry" />
        </mxCell>
        <mxCell id="7Hc2PI4Ob-_sRr31-LG4-19" value="state" style="ellipse;whiteSpace=wrap;html=1;" parent="1" vertex="1">
          <mxGeometry x="360" y="20" width="105" height="40" as="geometry" />
        </mxCell>
        <mxCell id="7Hc2PI4Ob-_sRr31-LG4-20" value="" style="endArrow=none;html=1;entryX=0;entryY=0;entryDx=0;entryDy=0;exitX=0.6;exitY=1.025;exitDx=0;exitDy=0;exitPerimeter=0;" parent="1" source="7Hc2PI4Ob-_sRr31-LG4-18" target="7Hc2PI4Ob-_sRr31-LG4-2" edge="1">
          <mxGeometry width="50" height="50" relative="1" as="geometry">
            <mxPoint x="450" y="390" as="sourcePoint" />
            <mxPoint x="500" y="340" as="targetPoint" />
          </mxGeometry>
        </mxCell>
        <mxCell id="7Hc2PI4Ob-_sRr31-LG4-21" value="" style="endArrow=none;html=1;exitX=0.5;exitY=0;exitDx=0;exitDy=0;" parent="1" source="7Hc2PI4Ob-_sRr31-LG4-2" target="7Hc2PI4Ob-_sRr31-LG4-19" edge="1">
          <mxGeometry width="50" height="50" relative="1" as="geometry">
            <mxPoint x="390" y="110" as="sourcePoint" />
            <mxPoint x="440" y="60" as="targetPoint" />
          </mxGeometry>
        </mxCell>
        <mxCell id="7Hc2PI4Ob-_sRr31-LG4-22" value="" style="endArrow=none;html=1;entryX=0.5;entryY=1;entryDx=0;entryDy=0;exitX=1;exitY=0;exitDx=0;exitDy=0;" parent="1" source="7Hc2PI4Ob-_sRr31-LG4-2" target="7Hc2PI4Ob-_sRr31-LG4-17" edge="1">
          <mxGeometry width="50" height="50" relative="1" as="geometry">
            <mxPoint x="500" y="110" as="sourcePoint" />
            <mxPoint x="550" y="60" as="targetPoint" />
          </mxGeometry>
        </mxCell>
        <mxCell id="7Hc2PI4Ob-_sRr31-LG4-23" value="" style="endArrow=none;html=1;entryX=1;entryY=1;entryDx=0;entryDy=0;exitX=0.25;exitY=0;exitDx=0;exitDy=0;" parent="1" source="7Hc2PI4Ob-_sRr31-LG4-1" target="rvncLkASF_yhk4bxJBFR-15" edge="1">
          <mxGeometry width="50" height="50" relative="1" as="geometry">
            <mxPoint x="450" y="390" as="sourcePoint" />
            <mxPoint x="229.44506060168533" y="104.20963869295588" as="targetPoint" />
          </mxGeometry>
        </mxCell>
        <mxCell id="7Hc2PI4Ob-_sRr31-LG4-24" value="" style="endArrow=none;html=1;exitX=0.25;exitY=0;exitDx=0;exitDy=0;" parent="1" source="7Hc2PI4Ob-_sRr31-LG4-1" edge="1">
          <mxGeometry width="50" height="50" relative="1" as="geometry">
            <mxPoint x="140" y="210" as="sourcePoint" />
            <mxPoint x="140" y="144" as="targetPoint" />
          </mxGeometry>
        </mxCell>
        <mxCell id="7Hc2PI4Ob-_sRr31-LG4-25" value="" style="endArrow=none;html=1;entryX=1;entryY=1;entryDx=0;entryDy=0;exitX=0.062;exitY=0.033;exitDx=0;exitDy=0;exitPerimeter=0;" parent="1" source="7Hc2PI4Ob-_sRr31-LG4-1" target="7Hc2PI4Ob-_sRr31-LG4-14" edge="1">
          <mxGeometry width="50" height="50" relative="1" as="geometry">
            <mxPoint x="120" y="390" as="sourcePoint" />
            <mxPoint x="170" y="340" as="targetPoint" />
          </mxGeometry>
        </mxCell>
        <mxCell id="7Hc2PI4Ob-_sRr31-LG4-27" value="middle name" style="ellipse;whiteSpace=wrap;html=1;" parent="1" vertex="1">
          <mxGeometry x="-120" y="40" width="80" height="30" as="geometry" />
        </mxCell>
        <mxCell id="7Hc2PI4Ob-_sRr31-LG4-28" value="last name" style="ellipse;whiteSpace=wrap;html=1;" parent="1" vertex="1">
          <mxGeometry x="-20" y="40" width="80" height="30" as="geometry" />
        </mxCell>
        <mxCell id="7Hc2PI4Ob-_sRr31-LG4-29" value="" style="endArrow=none;html=1;exitX=0;exitY=0;exitDx=0;exitDy=0;" parent="1" source="7Hc2PI4Ob-_sRr31-LG4-14" target="7Hc2PI4Ob-_sRr31-LG4-13" edge="1">
          <mxGeometry width="50" height="50" relative="1" as="geometry">
            <mxPoint x="-180" y="120" as="sourcePoint" />
            <mxPoint x="-130" y="70" as="targetPoint" />
          </mxGeometry>
        </mxCell>
        <mxCell id="7Hc2PI4Ob-_sRr31-LG4-30" value="" style="endArrow=none;html=1;entryX=0.5;entryY=1;entryDx=0;entryDy=0;exitX=0.5;exitY=0;exitDx=0;exitDy=0;" parent="1" source="7Hc2PI4Ob-_sRr31-LG4-14" target="7Hc2PI4Ob-_sRr31-LG4-27" edge="1">
          <mxGeometry width="50" height="50" relative="1" as="geometry">
            <mxPoint x="-80" y="120" as="sourcePoint" />
            <mxPoint x="-30" y="70" as="targetPoint" />
          </mxGeometry>
        </mxCell>
        <mxCell id="7Hc2PI4Ob-_sRr31-LG4-31" value="" style="endArrow=none;html=1;exitX=1;exitY=0;exitDx=0;exitDy=0;" parent="1" source="7Hc2PI4Ob-_sRr31-LG4-14" edge="1">
          <mxGeometry width="50" height="50" relative="1" as="geometry">
            <mxPoint x="-30" y="120" as="sourcePoint" />
            <mxPoint x="20" y="70" as="targetPoint" />
          </mxGeometry>
        </mxCell>
        <mxCell id="7Hc2PI4Ob-_sRr31-LG4-32" value="" style="endArrow=none;html=1;exitX=1;exitY=0.5;exitDx=0;exitDy=0;" parent="1" source="7Hc2PI4Ob-_sRr31-LG4-10" target="7Hc2PI4Ob-_sRr31-LG4-1" edge="1">
          <mxGeometry width="50" height="50" relative="1" as="geometry">
            <mxPoint x="60" y="240" as="sourcePoint" />
            <mxPoint x="110" y="190" as="targetPoint" />
          </mxGeometry>
        </mxCell>
        <mxCell id="7Hc2PI4Ob-_sRr31-LG4-33" value="" style="endArrow=none;html=1;entryX=0;entryY=0.5;entryDx=0;entryDy=0;exitX=1;exitY=0.5;exitDx=0;exitDy=0;" parent="1" source="7Hc2PI4Ob-_sRr31-LG4-11" target="7Hc2PI4Ob-_sRr31-LG4-1" edge="1">
          <mxGeometry width="50" height="50" relative="1" as="geometry">
            <mxPoint x="60" y="290" as="sourcePoint" />
            <mxPoint x="110" y="240" as="targetPoint" />
          </mxGeometry>
        </mxCell>
        <mxCell id="7Hc2PI4Ob-_sRr31-LG4-34" value="" style="endArrow=none;html=1;exitX=1;exitY=0.5;exitDx=0;exitDy=0;entryX=0;entryY=0.75;entryDx=0;entryDy=0;" parent="1" source="7Hc2PI4Ob-_sRr31-LG4-12" target="7Hc2PI4Ob-_sRr31-LG4-1" edge="1">
          <mxGeometry width="50" height="50" relative="1" as="geometry">
            <mxPoint x="80" y="340" as="sourcePoint" />
            <mxPoint x="130" y="290" as="targetPoint" />
          </mxGeometry>
        </mxCell>
        <mxCell id="7Hc2PI4Ob-_sRr31-LG4-37" value="" style="endArrow=none;html=1;exitX=0.5;exitY=0;exitDx=0;exitDy=0;entryX=0.5;entryY=1;entryDx=0;entryDy=0;" parent="1" source="7Hc2PI4Ob-_sRr31-LG4-1" target="7Hc2PI4Ob-_sRr31-LG4-4" edge="1">
          <mxGeometry width="50" height="50" relative="1" as="geometry">
            <mxPoint x="450" y="220" as="sourcePoint" />
            <mxPoint x="500" y="170" as="targetPoint" />
          </mxGeometry>
        </mxCell>
        <mxCell id="7Hc2PI4Ob-_sRr31-LG4-38" value="" style="endArrow=none;html=1;entryX=0.5;entryY=1;entryDx=0;entryDy=0;exitX=0.75;exitY=0;exitDx=0;exitDy=0;" parent="1" source="7Hc2PI4Ob-_sRr31-LG4-1" target="7Hc2PI4Ob-_sRr31-LG4-5" edge="1">
          <mxGeometry width="50" height="50" relative="1" as="geometry">
            <mxPoint x="660" y="220" as="sourcePoint" />
            <mxPoint x="710" y="170" as="targetPoint" />
          </mxGeometry>
        </mxCell>
        <mxCell id="7Hc2PI4Ob-_sRr31-LG4-39" value="" style="endArrow=none;html=1;entryX=0.5;entryY=1;entryDx=0;entryDy=0;exitX=1;exitY=0;exitDx=0;exitDy=0;" parent="1" source="7Hc2PI4Ob-_sRr31-LG4-1" target="7Hc2PI4Ob-_sRr31-LG4-6" edge="1">
          <mxGeometry width="50" height="50" relative="1" as="geometry">
            <mxPoint x="750" y="230" as="sourcePoint" />
            <mxPoint x="800" y="180" as="targetPoint" />
          </mxGeometry>
        </mxCell>
        <mxCell id="7Hc2PI4Ob-_sRr31-LG4-41" value="Degree program" style="ellipse;whiteSpace=wrap;html=1;" parent="1" vertex="1">
          <mxGeometry x="735" y="170" width="105" height="40" as="geometry" />
        </mxCell>
        <mxCell id="7Hc2PI4Ob-_sRr31-LG4-42" value="" style="endArrow=none;html=1;entryX=0;entryY=0.5;entryDx=0;entryDy=0;exitX=1;exitY=0.5;exitDx=0;exitDy=0;" parent="1" source="7Hc2PI4Ob-_sRr31-LG4-1" target="7Hc2PI4Ob-_sRr31-LG4-41" edge="1">
          <mxGeometry width="50" height="50" relative="1" as="geometry">
            <mxPoint x="370" y="390" as="sourcePoint" />
            <mxPoint x="420" y="340" as="targetPoint" />
          </mxGeometry>
        </mxCell>
        <mxCell id="7Hc2PI4Ob-_sRr31-LG4-43" value="Major Dept." style="rhombus;whiteSpace=wrap;html=1;direction=west;" parent="1" vertex="1">
          <mxGeometry x="720" y="220" width="110" height="40" as="geometry" />
        </mxCell>
        <mxCell id="7Hc2PI4Ob-_sRr31-LG4-44" value="" style="endArrow=none;html=1;entryX=1;entryY=0.5;entryDx=0;entryDy=0;exitX=1;exitY=0.5;exitDx=0;exitDy=0;" parent="1" source="7Hc2PI4Ob-_sRr31-LG4-1" target="7Hc2PI4Ob-_sRr31-LG4-43" edge="1">
          <mxGeometry width="50" height="50" relative="1" as="geometry">
            <mxPoint x="370" y="390" as="sourcePoint" />
            <mxPoint x="420" y="340" as="targetPoint" />
          </mxGeometry>
        </mxCell>
        <mxCell id="7Hc2PI4Ob-_sRr31-LG4-45" value="Minor Dept." style="rhombus;whiteSpace=wrap;html=1;direction=west;" parent="1" vertex="1">
          <mxGeometry x="500" y="260" width="110" height="40" as="geometry" />
        </mxCell>
        <mxCell id="7Hc2PI4Ob-_sRr31-LG4-46" value="" style="endArrow=none;html=1;entryX=1;entryY=1;entryDx=0;entryDy=0;exitX=0.831;exitY=1;exitDx=0;exitDy=0;exitPerimeter=0;" parent="1" source="7Hc2PI4Ob-_sRr31-LG4-1" target="7Hc2PI4Ob-_sRr31-LG4-45" edge="1">
          <mxGeometry width="50" height="50" relative="1" as="geometry">
            <mxPoint x="370" y="390" as="sourcePoint" />
            <mxPoint x="420" y="340" as="targetPoint" />
          </mxGeometry>
        </mxCell>
        <mxCell id="7Hc2PI4Ob-_sRr31-LG4-47" value="Department" style="rounded=0;whiteSpace=wrap;html=1;" parent="1" vertex="1">
          <mxGeometry x="890" y="260" width="120" height="30" as="geometry" />
        </mxCell>
        <mxCell id="7Hc2PI4Ob-_sRr31-LG4-50" value="D.office" style="ellipse;whiteSpace=wrap;html=1;" parent="1" vertex="1">
          <mxGeometry x="960" y="205" width="80" height="30" as="geometry" />
        </mxCell>
        <mxCell id="7Hc2PI4Ob-_sRr31-LG4-51" value="D.phone" style="ellipse;whiteSpace=wrap;html=1;" parent="1" vertex="1">
          <mxGeometry x="1030" y="175" width="80" height="30" as="geometry" />
        </mxCell>
        <mxCell id="7Hc2PI4Ob-_sRr31-LG4-52" value="" style="endArrow=none;html=1;entryX=0.5;entryY=1;entryDx=0;entryDy=0;exitX=0.25;exitY=0;exitDx=0;exitDy=0;" parent="1" source="7Hc2PI4Ob-_sRr31-LG4-47" edge="1">
          <mxGeometry width="50" height="50" relative="1" as="geometry">
            <mxPoint x="560" y="390" as="sourcePoint" />
            <mxPoint x="880" y="250" as="targetPoint" />
          </mxGeometry>
        </mxCell>
        <mxCell id="7Hc2PI4Ob-_sRr31-LG4-53" value="" style="endArrow=none;html=1;exitX=0.592;exitY=-0.033;exitDx=0;exitDy=0;exitPerimeter=0;entryX=0.5;entryY=1;entryDx=0;entryDy=0;" parent="1" source="7Hc2PI4Ob-_sRr31-LG4-47" edge="1">
          <mxGeometry width="50" height="50" relative="1" as="geometry">
            <mxPoint x="940" y="250" as="sourcePoint" />
            <mxPoint x="920" y="200" as="targetPoint" />
          </mxGeometry>
        </mxCell>
        <mxCell id="7Hc2PI4Ob-_sRr31-LG4-54" value="" style="endArrow=none;html=1;entryX=0.5;entryY=1;entryDx=0;entryDy=0;exitX=1;exitY=0;exitDx=0;exitDy=0;" parent="1" source="7Hc2PI4Ob-_sRr31-LG4-47" target="7Hc2PI4Ob-_sRr31-LG4-51" edge="1">
          <mxGeometry width="50" height="50" relative="1" as="geometry">
            <mxPoint x="990" y="280" as="sourcePoint" />
            <mxPoint x="1040" y="230" as="targetPoint" />
          </mxGeometry>
        </mxCell>
        <mxCell id="7Hc2PI4Ob-_sRr31-LG4-55" value="" style="endArrow=none;html=1;" parent="1" edge="1">
          <mxGeometry width="50" height="50" relative="1" as="geometry">
            <mxPoint x="990" y="260" as="sourcePoint" />
            <mxPoint x="1010" y="235" as="targetPoint" />
          </mxGeometry>
        </mxCell>
        <mxCell id="7Hc2PI4Ob-_sRr31-LG4-57" value="Dept.Courses" style="rhombus;whiteSpace=wrap;html=1;" parent="1" vertex="1">
          <mxGeometry x="920" y="330" width="90" height="50" as="geometry" />
        </mxCell>
        <mxCell id="7Hc2PI4Ob-_sRr31-LG4-58" style="edgeStyle=orthogonalEdgeStyle;rounded=0;orthogonalLoop=1;jettySize=auto;html=1;exitX=0.5;exitY=1;exitDx=0;exitDy=0;" parent="1" source="7Hc2PI4Ob-_sRr31-LG4-57" target="7Hc2PI4Ob-_sRr31-LG4-57" edge="1">
          <mxGeometry relative="1" as="geometry" />
        </mxCell>
        <mxCell id="7Hc2PI4Ob-_sRr31-LG4-59" value="" style="endArrow=none;html=1;entryX=0.583;entryY=1;entryDx=0;entryDy=0;entryPerimeter=0;exitX=0.5;exitY=0;exitDx=0;exitDy=0;" parent="1" source="7Hc2PI4Ob-_sRr31-LG4-57" target="7Hc2PI4Ob-_sRr31-LG4-47" edge="1">
          <mxGeometry width="50" height="50" relative="1" as="geometry">
            <mxPoint x="560" y="390" as="sourcePoint" />
            <mxPoint x="610" y="340" as="targetPoint" />
          </mxGeometry>
        </mxCell>
        <mxCell id="7Hc2PI4Ob-_sRr31-LG4-60" value="course" style="rounded=0;whiteSpace=wrap;html=1;" parent="1" vertex="1">
          <mxGeometry x="910" y="460" width="120" height="30" as="geometry" />
        </mxCell>
        <mxCell id="7Hc2PI4Ob-_sRr31-LG4-61" value="" style="endArrow=none;html=1;entryX=0.5;entryY=1;entryDx=0;entryDy=0;" parent="1" target="7Hc2PI4Ob-_sRr31-LG4-57" edge="1">
          <mxGeometry width="50" height="50" relative="1" as="geometry">
            <mxPoint x="965" y="460" as="sourcePoint" />
            <mxPoint x="1000" y="380" as="targetPoint" />
          </mxGeometry>
        </mxCell>
        <mxCell id="7Hc2PI4Ob-_sRr31-LG4-66" value="Name" style="ellipse;whiteSpace=wrap;html=1;" parent="1" vertex="1">
          <mxGeometry x="800" y="410" width="80" height="30" as="geometry" />
        </mxCell>
        <mxCell id="7Hc2PI4Ob-_sRr31-LG4-67" value="Description" style="ellipse;whiteSpace=wrap;html=1;" parent="1" vertex="1">
          <mxGeometry x="880" y="390" width="80" height="30" as="geometry" />
        </mxCell>
        <mxCell id="7Hc2PI4Ob-_sRr31-LG4-69" value="Level" style="ellipse;whiteSpace=wrap;html=1;" parent="1" vertex="1">
          <mxGeometry x="800" y="470" width="80" height="30" as="geometry" />
        </mxCell>
        <mxCell id="7Hc2PI4Ob-_sRr31-LG4-70" value="Hours" style="ellipse;whiteSpace=wrap;html=1;" parent="1" vertex="1">
          <mxGeometry x="1060" y="460" width="80" height="30" as="geometry" />
        </mxCell>
        <mxCell id="7Hc2PI4Ob-_sRr31-LG4-71" value="" style="endArrow=none;html=1;entryX=1;entryY=0.5;entryDx=0;entryDy=0;exitX=0;exitY=0.5;exitDx=0;exitDy=0;" parent="1" source="7Hc2PI4Ob-_sRr31-LG4-60" target="7Hc2PI4Ob-_sRr31-LG4-69" edge="1">
          <mxGeometry width="50" height="50" relative="1" as="geometry">
            <mxPoint x="920" y="570" as="sourcePoint" />
            <mxPoint x="970" y="520" as="targetPoint" />
          </mxGeometry>
        </mxCell>
        <mxCell id="7Hc2PI4Ob-_sRr31-LG4-72" value="" style="endArrow=none;html=1;entryX=1;entryY=1;entryDx=0;entryDy=0;exitX=0;exitY=0;exitDx=0;exitDy=0;" parent="1" source="7Hc2PI4Ob-_sRr31-LG4-60" target="7Hc2PI4Ob-_sRr31-LG4-66" edge="1">
          <mxGeometry width="50" height="50" relative="1" as="geometry">
            <mxPoint x="830" y="490" as="sourcePoint" />
            <mxPoint x="880" y="440" as="targetPoint" />
          </mxGeometry>
        </mxCell>
        <mxCell id="7Hc2PI4Ob-_sRr31-LG4-73" value="" style="endArrow=none;html=1;entryX=0.5;entryY=1;entryDx=0;entryDy=0;exitX=0.25;exitY=0;exitDx=0;exitDy=0;" parent="1" source="7Hc2PI4Ob-_sRr31-LG4-60" target="7Hc2PI4Ob-_sRr31-LG4-67" edge="1">
          <mxGeometry width="50" height="50" relative="1" as="geometry">
            <mxPoint x="660" y="560" as="sourcePoint" />
            <mxPoint x="710" y="510" as="targetPoint" />
          </mxGeometry>
        </mxCell>
        <mxCell id="7Hc2PI4Ob-_sRr31-LG4-74" value="" style="endArrow=none;html=1;exitX=0.75;exitY=0;exitDx=0;exitDy=0;entryX=0.5;entryY=1;entryDx=0;entryDy=0;" parent="1" source="7Hc2PI4Ob-_sRr31-LG4-60" edge="1">
          <mxGeometry width="50" height="50" relative="1" as="geometry">
            <mxPoint x="1010" y="490" as="sourcePoint" />
            <mxPoint x="1030" y="440" as="targetPoint" />
          </mxGeometry>
        </mxCell>
        <mxCell id="7Hc2PI4Ob-_sRr31-LG4-75" value="" style="endArrow=none;html=1;entryX=1;entryY=0.5;entryDx=0;entryDy=0;" parent="1" target="7Hc2PI4Ob-_sRr31-LG4-60" edge="1">
          <mxGeometry width="50" height="50" relative="1" as="geometry">
            <mxPoint x="1060" y="475" as="sourcePoint" />
            <mxPoint x="989.2893218813452" y="475" as="targetPoint" />
          </mxGeometry>
        </mxCell>
        <mxCell id="7Hc2PI4Ob-_sRr31-LG4-78" value="Course section" style="shape=rhombus;double=1;perimeter=rhombusPerimeter;whiteSpace=wrap;html=1;align=center;" parent="1" vertex="1">
          <mxGeometry x="905" y="520" width="120" height="60" as="geometry" />
        </mxCell>
        <mxCell id="7Hc2PI4Ob-_sRr31-LG4-79" value="" style="endArrow=none;html=1;entryX=0.5;entryY=1;entryDx=0;entryDy=0;" parent="1" source="7Hc2PI4Ob-_sRr31-LG4-78" target="7Hc2PI4Ob-_sRr31-LG4-60" edge="1">
          <mxGeometry width="50" height="50" relative="1" as="geometry">
            <mxPoint x="570" y="390" as="sourcePoint" />
            <mxPoint x="970" y="500" as="targetPoint" />
          </mxGeometry>
        </mxCell>
        <mxCell id="7Hc2PI4Ob-_sRr31-LG4-81" value="Section" style="shape=ext;margin=3;double=1;whiteSpace=wrap;html=1;align=center;" parent="1" vertex="1">
          <mxGeometry x="915" y="660" width="100" height="40" as="geometry" />
        </mxCell>
        <mxCell id="7Hc2PI4Ob-_sRr31-LG4-82" value="" style="endArrow=none;html=1;entryX=0.5;entryY=1;entryDx=0;entryDy=0;exitX=0.5;exitY=0;exitDx=0;exitDy=0;" parent="1" source="7Hc2PI4Ob-_sRr31-LG4-81" target="7Hc2PI4Ob-_sRr31-LG4-78" edge="1">
          <mxGeometry width="50" height="50" relative="1" as="geometry">
            <mxPoint x="965" y="610" as="sourcePoint" />
            <mxPoint x="960" y="539.2893218813452" as="targetPoint" />
          </mxGeometry>
        </mxCell>
        <mxCell id="7Hc2PI4Ob-_sRr31-LG4-83" value="section number" style="ellipse;whiteSpace=wrap;html=1;align=center;" parent="1" vertex="1">
          <mxGeometry x="800" y="640" width="80" height="30" as="geometry" />
        </mxCell>
        <mxCell id="7Hc2PI4Ob-_sRr31-LG4-84" value="Semester" style="ellipse;whiteSpace=wrap;html=1;align=center;" parent="1" vertex="1">
          <mxGeometry x="1060" y="665" width="80" height="30" as="geometry" />
        </mxCell>
        <mxCell id="7Hc2PI4Ob-_sRr31-LG4-85" value="year" style="ellipse;whiteSpace=wrap;html=1;align=center;" parent="1" vertex="1">
          <mxGeometry x="870" y="610" width="80" height="30" as="geometry" />
        </mxCell>
        <mxCell id="7Hc2PI4Ob-_sRr31-LG4-86" value="instructor" style="ellipse;whiteSpace=wrap;html=1;align=center;" parent="1" vertex="1">
          <mxGeometry x="980" y="610" width="80" height="30" as="geometry" />
        </mxCell>
        <mxCell id="7Hc2PI4Ob-_sRr31-LG4-88" value="" style="endArrow=none;html=1;exitX=0.25;exitY=0;exitDx=0;exitDy=0;" parent="1" source="7Hc2PI4Ob-_sRr31-LG4-81" edge="1">
          <mxGeometry width="50" height="50" relative="1" as="geometry">
            <mxPoint x="880" y="690" as="sourcePoint" />
            <mxPoint x="930" y="640" as="targetPoint" />
          </mxGeometry>
        </mxCell>
        <mxCell id="7Hc2PI4Ob-_sRr31-LG4-89" value="" style="endArrow=none;html=1;entryX=1;entryY=0.5;entryDx=0;entryDy=0;exitX=0;exitY=0.25;exitDx=0;exitDy=0;" parent="1" source="7Hc2PI4Ob-_sRr31-LG4-81" target="7Hc2PI4Ob-_sRr31-LG4-83" edge="1">
          <mxGeometry width="50" height="50" relative="1" as="geometry">
            <mxPoint x="920" y="810" as="sourcePoint" />
            <mxPoint x="970" y="760" as="targetPoint" />
          </mxGeometry>
        </mxCell>
        <mxCell id="7Hc2PI4Ob-_sRr31-LG4-90" value="" style="endArrow=none;html=1;entryX=1;entryY=0.5;entryDx=0;entryDy=0;exitX=0;exitY=0.5;exitDx=0;exitDy=0;" parent="1" source="7Hc2PI4Ob-_sRr31-LG4-84" target="7Hc2PI4Ob-_sRr31-LG4-81" edge="1">
          <mxGeometry width="50" height="50" relative="1" as="geometry">
            <mxPoint x="840" y="880" as="sourcePoint" />
            <mxPoint x="890" y="830" as="targetPoint" />
          </mxGeometry>
        </mxCell>
        <mxCell id="7Hc2PI4Ob-_sRr31-LG4-91" value="" style="endArrow=none;html=1;entryX=0.5;entryY=1;entryDx=0;entryDy=0;exitX=0.75;exitY=0;exitDx=0;exitDy=0;" parent="1" source="7Hc2PI4Ob-_sRr31-LG4-81" target="7Hc2PI4Ob-_sRr31-LG4-86" edge="1">
          <mxGeometry width="50" height="50" relative="1" as="geometry">
            <mxPoint x="1040" y="700" as="sourcePoint" />
            <mxPoint x="1090" y="650" as="targetPoint" />
          </mxGeometry>
        </mxCell>
        <mxCell id="7Hc2PI4Ob-_sRr31-LG4-92" value="Student section" style="shape=rhombus;perimeter=rhombusPerimeter;whiteSpace=wrap;html=1;align=center;" parent="1" vertex="1">
          <mxGeometry x="352.5" y="640" width="120" height="60" as="geometry" />
        </mxCell>
        <mxCell id="7Hc2PI4Ob-_sRr31-LG4-96" value="" style="endArrow=none;html=1;entryX=0;entryY=0.5;entryDx=0;entryDy=0;exitX=1;exitY=0.5;exitDx=0;exitDy=0;" parent="1" source="7Hc2PI4Ob-_sRr31-LG4-92" target="7Hc2PI4Ob-_sRr31-LG4-81" edge="1">
          <mxGeometry width="50" height="50" relative="1" as="geometry">
            <mxPoint x="640" y="480" as="sourcePoint" />
            <mxPoint x="690" y="430" as="targetPoint" />
          </mxGeometry>
        </mxCell>
        <mxCell id="7Hc2PI4Ob-_sRr31-LG4-98" value="Grade" style="whiteSpace=wrap;html=1;align=center;" parent="1" vertex="1">
          <mxGeometry x="155" y="650" width="100" height="40" as="geometry" />
        </mxCell>
        <mxCell id="7Hc2PI4Ob-_sRr31-LG4-100" value="" style="endArrow=none;html=1;entryX=0.5;entryY=1;entryDx=0;entryDy=0;exitX=0.5;exitY=0;exitDx=0;exitDy=0;" parent="1" source="7Hc2PI4Ob-_sRr31-LG4-98" edge="1">
          <mxGeometry width="50" height="50" relative="1" as="geometry">
            <mxPoint x="150" y="660" as="sourcePoint" />
            <mxPoint x="270" y="610" as="targetPoint" />
          </mxGeometry>
        </mxCell>
        <mxCell id="7Hc2PI4Ob-_sRr31-LG4-101" value="" style="endArrow=none;html=1;entryX=0.5;entryY=1;entryDx=0;entryDy=0;exitX=0.25;exitY=0;exitDx=0;exitDy=0;" parent="1" source="7Hc2PI4Ob-_sRr31-LG4-98" edge="1">
          <mxGeometry width="50" height="50" relative="1" as="geometry">
            <mxPoint x="150" y="660" as="sourcePoint" />
            <mxPoint x="120" y="610" as="targetPoint" />
          </mxGeometry>
        </mxCell>
        <mxCell id="7Hc2PI4Ob-_sRr31-LG4-102" value="" style="endArrow=none;html=1;exitX=0.479;exitY=0;exitDx=0;exitDy=0;exitPerimeter=0;" parent="1" source="7Hc2PI4Ob-_sRr31-LG4-92" edge="1">
          <mxGeometry width="50" height="50" relative="1" as="geometry">
            <mxPoint x="420" y="640" as="sourcePoint" />
            <mxPoint x="410" y="264" as="targetPoint" />
          </mxGeometry>
        </mxCell>
        <mxCell id="7Hc2PI4Ob-_sRr31-LG4-103" value="" style="endArrow=none;html=1;entryX=0;entryY=0.5;entryDx=0;entryDy=0;exitX=0;exitY=0.5;exitDx=0;exitDy=0;" parent="1" source="7Hc2PI4Ob-_sRr31-LG4-45" target="7Hc2PI4Ob-_sRr31-LG4-47" edge="1">
          <mxGeometry width="50" height="50" relative="1" as="geometry">
            <mxPoint x="640" y="480" as="sourcePoint" />
            <mxPoint x="690" y="430" as="targetPoint" />
          </mxGeometry>
        </mxCell>
        <mxCell id="rvncLkASF_yhk4bxJBFR-1" value="Grade" style="shape=rhombus;perimeter=rhombusPerimeter;whiteSpace=wrap;html=1;align=center;" vertex="1" parent="1">
          <mxGeometry x="120" y="460" width="110" height="70" as="geometry" />
        </mxCell>
        <mxCell id="rvncLkASF_yhk4bxJBFR-2" value="" style="endArrow=none;html=1;entryX=0.338;entryY=1;entryDx=0;entryDy=0;entryPerimeter=0;exitX=0.5;exitY=0;exitDx=0;exitDy=0;" edge="1" parent="1" source="rvncLkASF_yhk4bxJBFR-1" target="7Hc2PI4Ob-_sRr31-LG4-1">
          <mxGeometry width="50" height="50" relative="1" as="geometry">
            <mxPoint x="290" y="380" as="sourcePoint" />
            <mxPoint x="340" y="330" as="targetPoint" />
          </mxGeometry>
        </mxCell>
        <mxCell id="rvncLkASF_yhk4bxJBFR-6" value="" style="endArrow=none;html=1;entryX=0.5;entryY=1;entryDx=0;entryDy=0;exitX=0.5;exitY=0;exitDx=0;exitDy=0;" edge="1" parent="1" source="7Hc2PI4Ob-_sRr31-LG4-98" target="rvncLkASF_yhk4bxJBFR-1">
          <mxGeometry width="50" height="50" relative="1" as="geometry">
            <mxPoint x="170" y="580" as="sourcePoint" />
            <mxPoint x="220" y="530" as="targetPoint" />
          </mxGeometry>
        </mxCell>
        <mxCell id="rvncLkASF_yhk4bxJBFR-15" value="SSN" style="ellipse;whiteSpace=wrap;html=1;align=center;fontStyle=4;" vertex="1" parent="1">
          <mxGeometry x="165" y="110" width="100" height="40" as="geometry" />
        </mxCell>
        <mxCell id="rvncLkASF_yhk4bxJBFR-16" value="SSN number" style="ellipse;whiteSpace=wrap;html=1;align=center;fontStyle=4;" vertex="1" parent="1">
          <mxGeometry x="55" y="110" width="100" height="40" as="geometry" />
        </mxCell>
        <mxCell id="rvncLkASF_yhk4bxJBFR-19" value="Departnment Code" style="ellipse;whiteSpace=wrap;html=1;align=center;fontStyle=4;" vertex="1" parent="1">
          <mxGeometry x="840" y="220" width="80" height="35" as="geometry" />
        </mxCell>
        <mxCell id="rvncLkASF_yhk4bxJBFR-20" value="Course number" style="ellipse;whiteSpace=wrap;html=1;align=center;fontStyle=4;" vertex="1" parent="1">
          <mxGeometry x="1000" y="405" width="100" height="35" as="geometry" />
        </mxCell>
        <mxCell id="rvncLkASF_yhk4bxJBFR-21" value="Department Name" style="ellipse;whiteSpace=wrap;html=1;align=center;fontStyle=4;" vertex="1" parent="1">
          <mxGeometry x="880" y="160" width="100" height="40" as="geometry" />
        </mxCell>
        <mxCell id="rvncLkASF_yhk4bxJBFR-22" value="Letter Grade" style="ellipse;whiteSpace=wrap;html=1;align=center;fontStyle=4;" vertex="1" parent="1">
          <mxGeometry x="65" y="580" width="100" height="40" as="geometry" />
        </mxCell>
        <mxCell id="rvncLkASF_yhk4bxJBFR-23" value="Numerical Grade" style="ellipse;whiteSpace=wrap;html=1;align=center;fontStyle=4;" vertex="1" parent="1">
          <mxGeometry x="220" y="570" width="100" height="40" as="geometry" />
        </mxCell>
      </root>
    </mxGraphModel>
  </diagram>
</mxfile>
